<svg width="41" height="43" viewBox="0 0 41 43" fill="none" xmlns="http://www.w3.org/2000/svg">
<path d="M16.9583 38.8333H5.49998C4.39491 38.8333 3.3351 38.3943 2.5537 37.6129C1.7723 36.8315 1.33331 35.7717 1.33331 34.6666V9.66665C1.33331 8.56158 1.7723 7.50177 2.5537 6.72037C3.3351 5.93897 4.39491 5.49998 5.49998 5.49998H30.5C31.6051 5.49998 32.6649 5.93897 33.4463 6.72037C34.2277 7.50177 34.6666 8.56158 34.6666 9.66665V19.0416M26.3333 1.33331V9.66665M9.66665 1.33331V9.66665M1.33331 18H34.6666" stroke="#0F4C3A" stroke-width="2.66667" stroke-linecap="round" stroke-linejoin="round"/>
<path d="M35.0833 37.1666L38.8333 40.9166M24.25 32.5833C24.25 34.2409 24.9085 35.8306 26.0806 37.0027C27.2527 38.1748 28.8424 38.8333 30.5 38.8333C32.1576 38.8333 33.7473 38.1748 34.9194 37.0027C36.0915 35.8306 36.75 34.2409 36.75 32.5833C36.75 30.9257 36.0915 29.336 34.9194 28.1639C33.7473 26.9918 32.1576 26.3333 30.5 26.3333C28.8424 26.3333 27.2527 26.9918 26.0806 28.1639C24.9085 29.336 24.25 30.9257 24.25 32.5833Z" stroke="#0F4C3A" stroke-width="2.66667" stroke-linecap="round" stroke-linejoin="round"/>
</svg>
