<svg width="65" height="65" viewBox="0 0 65 65" fill="none" xmlns="http://www.w3.org/2000/svg">
<path d="M33.9083 56.6692C31.5521 57.3787 28.6812 56.2575 27.9635 53.3081C27.7904 52.5937 27.4511 51.9302 26.9731 51.3717C26.4951 50.8132 25.892 50.3754 25.2128 50.094C24.5337 49.8126 23.7977 49.6956 23.0647 49.7524C22.3318 49.8093 21.6227 50.0383 20.995 50.421C16.816 52.9669 12.0304 48.184 14.5762 44.0023C14.9584 43.3749 15.1871 42.6662 15.2438 41.9337C15.3005 41.2013 15.1836 40.4658 14.9025 39.7871C14.6215 39.1084 14.1842 38.5055 13.6264 38.0276C13.0685 37.5496 12.4057 37.21 11.6919 37.0365C6.93604 35.8827 6.93604 29.1173 11.6919 27.9635C12.4063 27.7904 13.0698 27.4511 13.6283 26.9731C14.1868 26.4951 14.6246 25.892 14.906 25.2128C15.1874 24.5337 15.3044 23.7977 15.2476 23.0647C15.1907 22.3318 14.9617 21.6227 14.579 20.995C12.0331 16.816 16.816 12.0304 20.9977 14.5762C23.706 16.2229 27.216 14.7658 27.9635 11.6919C29.1173 6.93604 35.8827 6.93604 37.0365 11.6919C37.2096 12.4063 37.5489 13.0698 38.0269 13.6283C38.5049 14.1868 39.108 14.6246 39.7872 14.906C40.4663 15.1874 41.2023 15.3044 41.9353 15.2476C42.6682 15.1907 43.3773 14.9617 44.005 14.579C48.184 12.0331 52.9696 16.816 50.4237 20.9977C50.0416 21.6251 49.8129 22.3338 49.7562 23.0663C49.6995 23.7987 49.8164 24.5342 50.0975 25.2129C50.3785 25.8916 50.8158 26.4945 51.3736 26.9724C51.9315 27.4504 52.5943 27.79 53.3081 27.9635C56.2548 28.6785 57.376 31.5467 56.6719 33.9002M51.4583 43.3333V59.5833M51.4583 59.5833L59.5833 51.4583M51.4583 59.5833L43.3333 51.4583" stroke="#D4F1E6" stroke-width="5" stroke-linecap="round" stroke-linejoin="round"/>
<path d="M24.375 32.5C24.375 34.6549 25.231 36.7215 26.7548 38.2452C28.2785 39.769 30.3451 40.625 32.5 40.625C34.6549 40.625 36.7215 39.769 38.2452 38.2452C39.769 36.7215 40.625 34.6549 40.625 32.5C40.625 30.3451 39.769 28.2785 38.2452 26.7548C36.7215 25.231 34.6549 24.375 32.5 24.375C30.3451 24.375 28.2785 25.231 26.7548 26.7548C25.231 28.2785 24.375 30.3451 24.375 32.5Z" stroke="#D4F1E6" stroke-width="5" stroke-linecap="round" stroke-linejoin="round"/>
</svg>
