<svg width="33" height="33" viewBox="0 0 33 33" fill="none" xmlns="http://www.w3.org/2000/svg">
<path d="M10.8621 1.41125C11.2864 1.89759 11.5916 2.47607 11.7536 3.10086C11.9155 3.72564 11.9297 4.37955 11.7951 5.01078C12.7736 4.51725 13.837 4.21437 14.9287 4.11828C16.6167 3.97086 18.3106 4.32752 19.7959 5.14312C23.6598 7.26395 26.8406 10.4402 28.9669 14.3011C29.5308 15.3197 29.8802 16.4429 29.9936 17.6016C30.107 18.7603 29.9821 19.93 29.6265 21.0386C30.2773 21.1876 30.8811 21.4954 31.3841 21.9344L31.3885 21.9377C33.2041 23.5323 33.2916 26.3105 31.6029 27.9861C30.9497 28.639 30.0977 29.0558 29.1813 29.1706C29.0719 30.0598 28.6782 30.9108 27.9957 31.5944C27.5938 31.9971 27.1133 32.3127 26.5841 32.5216C26.0549 32.7306 25.4883 32.8283 24.9197 32.8088C24.3511 32.7894 23.7926 32.653 23.2789 32.4083C22.7653 32.1636 22.3075 31.8158 21.9341 31.3866V31.3844C21.4938 30.8796 21.1856 30.2734 21.0373 29.6202C19.9292 29.9739 18.7608 30.0985 17.6031 29.9865C16.4454 29.8744 15.3226 29.528 14.303 28.9683C10.4458 26.8427 7.26999 23.6673 5.14398 19.8103C4.28374 18.2556 3.93043 16.471 4.13335 14.7058C4.24894 13.6914 4.54568 12.706 5.00945 11.7964C4.3783 11.9307 3.72455 11.9163 3.09997 11.7541C2.47539 11.592 1.89713 11.2867 1.41101 10.8623L1.40663 10.8591C0.981501 10.4849 0.637544 10.0276 0.395987 9.51536C0.154429 9.00313 0.0203941 8.44684 0.00215133 7.8808C-0.0160914 7.31476 0.081845 6.75098 0.289918 6.22426C0.497991 5.69754 0.811788 5.21904 1.21195 4.81828C1.86034 4.16044 2.71228 3.74141 3.62913 3.62937C3.73851 2.74781 4.13007 1.88922 4.81366 1.20562L4.81695 1.20234C5.21914 0.804236 5.69841 0.49246 6.22536 0.286122C6.75231 0.0797837 7.31584 -0.0167693 7.88143 0.00238045C8.44701 0.0215302 9.00273 0.155979 9.51451 0.397487C10.0263 0.638995 10.4834 0.982474 10.8577 1.40687L10.8621 1.41125ZM21.198 27.2073C21.3038 26.923 21.4398 26.6503 21.606 26.3892C20.9121 26.9057 20.0692 27.1829 19.2041 27.1789C18.1213 27.1789 17.1151 26.7633 16.3494 25.9977C15.5838 25.232 15.1682 24.2258 15.1682 23.143C15.1682 22.0602 15.5838 21.0539 16.3494 20.2883L20.2869 16.3508C21.0526 15.5852 22.0588 15.1695 23.1416 15.1695C24.2135 15.1695 25.2307 15.5961 25.9963 16.3508C26.7619 17.1164 27.1776 18.1227 27.1776 19.2055C27.1776 20.0859 26.9041 20.915 26.3901 21.6062C26.6504 21.4389 26.9282 21.3022 27.2148 21.1961C27.6554 20.2807 27.8705 19.2731 27.8421 18.2576C27.8138 17.2421 27.5428 16.2481 27.0518 15.3587C25.1259 11.8604 22.2443 8.98221 18.7437 7.06047C17.6375 6.4533 16.376 6.18799 15.119 6.29812C13.6254 6.42659 12.2246 7.07626 11.1618 8.13344L8.1321 11.1741C7.15534 12.1501 6.52247 13.4174 6.32892 14.7846C6.13538 16.1518 6.39167 17.5449 7.05913 18.7537C8.98498 22.2484 11.8619 25.1257 15.3563 27.052C16.2479 27.5401 17.2429 27.8088 18.259 27.8358C19.275 27.8628 20.2829 27.6474 21.1991 27.2073M5.78491 4.11609V4.13797C5.75538 5.01734 5.04663 5.77859 4.11148 5.78515C3.60701 5.79061 3.1251 5.99501 2.77054 6.3539L2.76398 6.36156C1.97101 7.15344 1.99835 8.45718 2.85476 9.21844C3.21181 9.5258 3.66678 9.69576 4.1379 9.69776C4.60902 9.69977 5.06542 9.53369 5.42507 9.22937C5.66837 9.01256 5.97037 8.87256 6.29306 8.82702C6.61576 8.78148 6.94471 8.83242 7.23851 8.97344L8.96992 7.23437C8.82975 6.94087 8.77938 6.61251 8.8251 6.29048C8.87083 5.96846 9.01062 5.6671 9.22695 5.42422C9.53126 5.06456 9.69734 4.60817 9.69534 4.13704C9.69333 3.66592 9.52338 3.21096 9.21601 2.8539C9.03898 2.65316 8.82287 2.49062 8.5809 2.37621C8.33893 2.26181 8.07617 2.19795 7.80868 2.18853C7.54119 2.17911 7.27459 2.22434 7.02517 2.32144C6.77575 2.41854 6.54875 2.56548 6.35804 2.75328C5.97851 3.1339 5.78929 3.62281 5.78273 4.11609M21.5852 20.0662L20.0649 21.5866C20.0594 21.5919 20.0551 21.5984 20.0523 21.6056C20.0494 21.6128 20.0482 21.6204 20.0485 21.6281C20.0485 21.6471 20.054 21.6609 20.0649 21.6697L23.554 25.1588C23.8399 25.4436 24.0064 25.8268 24.0196 26.2302C24.0328 26.6336 23.8917 27.0269 23.6251 27.3298C22.959 28.0998 22.9546 29.2253 23.5835 29.9505C23.7599 30.1532 23.9762 30.3175 24.2189 30.4331C24.4616 30.5486 24.7254 30.613 24.994 30.6221C25.2627 30.6312 25.5303 30.585 25.7803 30.4862C26.0302 30.3874 26.2572 30.2381 26.4469 30.0478C26.8109 29.6889 27.0181 29.2005 27.0234 28.6894C27.0288 27.7531 27.7912 27.0444 28.6716 27.0159L28.6826 27.0148H28.6935C29.1857 27.0072 29.6768 26.818 30.0563 26.4384L30.0596 26.4352C30.8394 25.6619 30.8187 24.3527 29.9469 23.5837C29.2218 22.9559 28.0985 22.9614 27.3285 23.6275C27.0254 23.894 26.6321 24.0349 26.2287 24.0215C25.8253 24.0081 25.4422 23.8414 25.1574 23.5553L21.6684 20.0662C21.663 20.0607 21.6565 20.0564 21.6493 20.0536C21.6422 20.0508 21.6345 20.0495 21.6268 20.0498C21.6193 20.0497 21.6118 20.051 21.6048 20.0538C21.5979 20.0567 21.5916 20.0609 21.5863 20.0662" fill="#0F4C3A"/>
</svg>
