<svg width="24" height="24" viewBox="0 0 24 24" fill="none" xmlns="http://www.w3.org/2000/svg">
<path fill-rule="evenodd" clip-rule="evenodd" d="M13.3333 10.8667V1.33333C13.3333 0.979711 13.1929 0.640573 12.9428 0.390524C12.6928 0.140476 12.3536 0 12 0C11.6464 0 11.3072 0.140476 11.0572 0.390524C10.8071 0.640573 10.6667 0.979711 10.6667 1.33333V10.8667L7.70667 7.16533C7.59939 7.02254 7.46453 6.90275 7.31007 6.81308C7.15561 6.72341 6.98471 6.66568 6.80752 6.64333C6.63032 6.62097 6.45044 6.63445 6.27855 6.68295C6.10666 6.73145 5.94627 6.81399 5.80689 6.92567C5.66752 7.03735 5.552 7.17589 5.46719 7.33307C5.38239 7.49026 5.33003 7.66287 5.31322 7.84068C5.29641 8.01849 5.31549 8.19786 5.36934 8.36815C5.42318 8.53844 5.51069 8.69618 5.62667 8.832L10.96 15.4987C11.0849 15.6544 11.2432 15.7801 11.4233 15.8664C11.6033 15.9528 11.8004 15.9976 12 15.9976C12.1996 15.9976 12.3967 15.9528 12.5768 15.8664C12.7568 15.7801 12.9151 15.6544 13.04 15.4987L18.3733 8.832C18.4893 8.69618 18.5768 8.53844 18.6307 8.36815C18.6845 8.19786 18.7036 8.01849 18.6868 7.84068C18.67 7.66287 18.6176 7.49026 18.5328 7.33307C18.448 7.17589 18.3325 7.03735 18.1931 6.92567C18.0537 6.81399 17.8933 6.73145 17.7214 6.68295C17.5496 6.63445 17.3697 6.62097 17.1925 6.64333C17.0153 6.66568 16.8444 6.72341 16.6899 6.81308C16.5355 6.90275 16.4006 7.02254 16.2933 7.16533L13.3333 10.8667Z" fill="#0F4C3A"/>
<path fill-rule="evenodd" clip-rule="evenodd" d="M8.876 17.1654L5.81067 13.3334H2.66667C1.95942 13.3334 1.28115 13.6143 0.781048 14.1144C0.280951 14.6145 0 15.2928 0 16V21.3334C0 22.0406 0.280951 22.7189 0.781048 23.219C1.28115 23.7191 1.95942 24 2.66667 24H21.3333C22.0406 24 22.7189 23.7191 23.219 23.219C23.719 22.7189 24 22.0406 24 21.3334V16C24 15.2928 23.719 14.6145 23.219 14.1144C22.7189 13.6143 22.0406 13.3334 21.3333 13.3334H18.1893L15.1227 17.1654C14.7479 17.6338 14.2726 18.0118 13.732 18.2717C13.1913 18.5315 12.5992 18.6664 11.9993 18.6664C11.3995 18.6664 10.8073 18.5315 10.2667 18.2717C9.72603 18.0118 9.25075 17.6338 8.876 17.1654ZM18.6667 17.3334C18.313 17.3334 17.9739 17.4738 17.7239 17.7239C17.4738 17.9739 17.3333 18.3131 17.3333 18.6667C17.3333 19.0203 17.4738 19.3595 17.7239 19.6095C17.9739 19.8596 18.313 20 18.6667 20H18.68C19.0336 20 19.3728 19.8596 19.6228 19.6095C19.8729 19.3595 20.0133 19.0203 20.0133 18.6667C20.0133 18.3131 19.8729 17.9739 19.6228 17.7239C19.3728 17.4738 19.0336 17.3334 18.68 17.3334H18.6667Z" fill="#0F4C3A"/>
</svg>
