<svg width="70" height="70" viewBox="0 0 70 70" fill="none" xmlns="http://www.w3.org/2000/svg">
<path d="M35 13.1251C31.519 13.1251 28.1806 14.5079 25.7192 16.9693C23.2578 19.4307 21.875 22.7691 21.875 26.2501C21.875 26.8302 21.6445 27.3866 21.2343 27.7969C20.8241 28.2071 20.2677 28.4376 19.6875 28.4376H18.5938C15.983 28.4376 13.4792 29.4747 11.6332 31.3207C9.78711 33.1668 8.75001 35.6706 8.75001 38.2813C8.75001 40.8921 9.78711 43.3959 11.6332 45.2419C13.4792 47.088 15.983 48.1251 18.5938 48.1251H21.9713C22.1113 49.6301 22.3811 51.0884 22.7806 52.5001H18.5938C14.9009 52.5079 11.3498 51.0787 8.6919 48.5149C6.03404 45.951 4.47794 42.4536 4.35289 38.7629C4.22784 35.0721 5.54363 31.4774 8.02186 28.7395C10.5001 26.0016 13.9463 24.3353 17.6313 24.0932C18.1375 19.976 20.0897 16.1725 23.1399 13.3611C26.19 10.5497 30.1397 8.91317 34.2844 8.74343C38.4291 8.57369 42.4993 9.88177 45.7691 12.4344C49.039 14.987 51.2957 18.6181 52.1369 22.6801C50.5854 22.2688 48.9967 22.0138 47.3944 21.9188C46.4958 19.3485 44.8201 17.1212 42.5994 15.5456C40.3787 13.97 37.7229 13.1241 35 13.1251ZM65.625 45.9376C65.625 48.523 65.1158 51.0831 64.1264 53.4717C63.137 55.8603 61.6868 58.0306 59.8587 59.8587C58.0305 61.6869 55.8602 63.1371 53.4716 64.1265C51.083 65.1159 48.5229 65.6251 45.9375 65.6251C43.3521 65.6251 40.792 65.1159 38.4034 64.1265C36.0148 63.1371 33.8445 61.6869 32.0163 59.8587C30.1882 58.0306 28.738 55.8603 27.7486 53.4717C26.7592 51.0831 26.25 48.523 26.25 45.9376C26.25 40.7161 28.3242 35.7085 32.0163 32.0164C35.7085 28.3243 40.7161 26.2501 45.9375 26.2501C51.159 26.2501 56.1665 28.3243 59.8587 32.0164C63.5508 35.7085 65.625 40.7161 65.625 45.9376ZM44.3888 56.232L44.4019 56.2451C44.8079 56.6455 45.3542 56.8715 45.9244 56.8751H45.9506C46.5251 56.8715 47.0751 56.6421 47.4819 56.2363L56.2319 47.4863C56.6426 47.0762 56.8736 46.5196 56.874 45.9391C56.8745 45.3586 56.6442 44.8018 56.2341 44.391C55.8239 43.9803 55.2673 43.7493 54.6869 43.7489C54.1064 43.7485 53.5495 43.9787 53.1388 44.3888L48.125 49.407V37.1876C48.125 36.6074 47.8945 36.051 47.4843 35.6408C47.0741 35.2305 46.5177 35.0001 45.9375 35.0001C45.3573 35.0001 44.8009 35.2305 44.3907 35.6408C43.9805 36.051 43.75 36.6074 43.75 37.1876V49.407L38.7363 44.3888C38.3255 43.9781 37.7684 43.7473 37.1875 43.7473C36.6066 43.7473 36.0495 43.9781 35.6388 44.3888C35.228 44.7996 34.9972 45.3567 34.9972 45.9376C34.9972 46.5185 35.228 47.0756 35.6388 47.4863L44.3888 56.232Z" fill="white"/>
</svg>
