<svg width="60" height="60" viewBox="0 0 60 60" fill="none" xmlns="http://www.w3.org/2000/svg">
<path fill-rule="evenodd" clip-rule="evenodd" d="M31.4825 58.1451L31.455 58.1501L31.2775 58.2376L31.2275 58.2476L31.1925 58.2376L31.015 58.1501C30.9883 58.1418 30.9683 58.1459 30.955 58.1626L30.945 58.1876L30.9025 59.2576L30.915 59.3076L30.94 59.3401L31.2 59.5251L31.2375 59.5351L31.2675 59.5251L31.5275 59.3401L31.5575 59.3001L31.5675 59.2576L31.525 58.1901C31.5183 58.1634 31.5042 58.1484 31.4825 58.1451ZM32.145 57.8626L32.1125 57.8676L31.65 58.1001L31.625 58.1251L31.6175 58.1526L31.6625 59.2276L31.675 59.2576L31.695 59.2751L32.1975 59.5076C32.2292 59.5159 32.2533 59.5093 32.27 59.4876L32.28 59.4526L32.195 57.9176C32.1867 57.8876 32.17 57.8693 32.145 57.8626ZM30.3575 57.8676C30.3465 57.8609 30.3333 57.8587 30.3207 57.8615C30.3082 57.8643 30.2972 57.8719 30.29 57.8826L30.275 57.9176L30.19 59.4526C30.1917 59.4826 30.2058 59.5026 30.2325 59.5126L30.27 59.5076L30.7725 59.2751L30.7975 59.2551L30.8075 59.2276L30.85 58.1526L30.8425 58.1226L30.8175 58.0976L30.3575 57.8676Z" fill="white"/>
<path fill-rule="evenodd" clip-rule="evenodd" d="M30 35.305L43.2575 48.5625C43.961 49.266 44.9151 49.6612 45.91 49.6612C46.9049 49.6612 47.859 49.266 48.5625 48.5625C49.266 47.859 49.6612 46.9049 49.6612 45.91C49.6612 44.9151 49.266 43.961 48.5625 43.2575L35.3 30L48.56 16.7425C48.9082 16.3942 49.1843 15.9807 49.3727 15.5256C49.561 15.0706 49.6579 14.5829 49.6578 14.0904C49.6577 13.5979 49.5606 13.1102 49.372 12.6553C49.1834 12.2003 48.9071 11.7869 48.5587 11.4388C48.2104 11.0906 47.7969 10.8145 47.3419 10.6261C46.8868 10.4377 46.3991 10.3408 45.9066 10.341C45.4141 10.3411 44.9264 10.4382 44.4715 10.6268C44.0165 10.8154 43.6032 11.0917 43.255 11.44L30 24.6975L16.7425 11.44C16.3967 11.0817 15.9831 10.7958 15.5257 10.5991C15.0682 10.4023 14.5762 10.2987 14.0783 10.2941C13.5804 10.2895 13.0865 10.3842 12.6256 10.5725C12.1646 10.7609 11.7458 11.0391 11.3935 11.391C11.0413 11.743 10.7626 12.1615 10.5739 12.6223C10.3851 13.0831 10.29 13.5768 10.2941 14.0748C10.2982 14.5727 10.4014 15.0648 10.5977 15.5224C10.794 15.98 11.0795 16.3939 11.4375 16.74L24.7 30L11.44 43.26C11.082 43.6061 10.7965 44.0201 10.6002 44.4777C10.4039 44.9353 10.3007 45.4274 10.2966 45.9253C10.2925 46.4232 10.3876 46.917 10.5764 47.3778C10.7651 47.8385 11.0438 48.2571 11.396 48.609C11.7483 48.9609 12.1671 49.2392 12.6281 49.4275C13.089 49.6159 13.5829 49.7105 14.0808 49.706C14.5787 49.7014 15.0707 49.5977 15.5281 49.401C15.9856 49.2042 16.3992 48.9184 16.745 48.56L30 35.305Z" fill="white"/>
</svg>
