<svg width="30" height="30" viewBox="0 0 30 30" fill="none" xmlns="http://www.w3.org/2000/svg">
<path fill-rule="evenodd" clip-rule="evenodd" d="M10.9917 1.44676C10.9917 1.25677 10.9567 1.06864 10.8886 0.893109C10.8205 0.71758 10.7207 0.55809 10.5949 0.423746C10.4691 0.289402 10.3197 0.182834 10.1553 0.110128C9.99091 0.0374215 9.81472 0 9.63679 0C9.45885 0 9.28266 0.0374215 9.11827 0.110128C8.95388 0.182834 8.80451 0.289402 8.6787 0.423746C8.55288 0.55809 8.45307 0.71758 8.38498 0.893109C8.31689 1.06864 8.28184 1.25677 8.28184 1.44676V5.06482C8.28184 5.25481 8.31689 5.44294 8.38498 5.61847C8.45307 5.794 8.55288 5.95348 8.6787 6.08783C8.80451 6.22217 8.95388 6.32874 9.11827 6.40145C9.28266 6.47415 9.45885 6.51157 9.63679 6.51157C9.81472 6.51157 9.99091 6.47415 10.1553 6.40145C10.3197 6.32874 10.4691 6.22217 10.5949 6.08783C10.7207 5.95348 10.8205 5.794 10.8886 5.61847C10.9567 5.44294 10.9917 5.25481 10.9917 5.06482V1.44676ZM4.68961 2.69213C5.43971 2.69213 6.04455 3.34028 6.04455 4.13889V7.75695C6.04455 8.14065 5.9018 8.50864 5.6477 8.77996C5.3936 9.05128 5.04896 9.2037 4.68961 9.2037C4.33025 9.2037 3.98562 9.05128 3.73152 8.77996C3.47742 8.50864 3.33466 8.14065 3.33466 7.75695V4.13889C3.33466 3.34028 3.94168 2.69213 4.68961 2.69213ZM14.5818 2.69213C15.3297 2.69213 15.9367 3.34028 15.9367 4.13889V7.75695C15.9367 8.14065 15.794 8.50864 15.5399 8.77996C15.2858 9.05128 14.9412 9.2037 14.5818 9.2037C14.2224 9.2037 13.8778 9.05128 13.6237 8.77996C13.3696 8.50864 13.2269 8.14065 13.2269 7.75695V4.13889C13.2269 3.34028 13.8339 2.69213 14.5818 2.69213ZM26.8479 6.22454C26.3372 6.22409 25.834 6.35606 25.3816 6.60909C24.9292 6.86213 24.5411 7.22867 24.2507 7.67722C23.9602 8.12576 23.7762 8.6429 23.7142 9.18418C23.6523 9.72547 23.7144 10.2747 23.8952 10.7847L21.5603 13.0856C20.2379 12.4653 18.638 12.5648 17.1985 13.3241C16.6595 13.6612 16.1725 14.0852 15.7546 14.581C13.9206 16.7315 13.8013 19.5579 14.998 21.2153C15.1209 21.385 15.2589 21.5448 15.4121 21.6944C15.5174 21.7967 15.6029 21.9202 15.6635 22.0577C15.7242 22.1953 15.7589 22.3442 15.7656 22.4961C15.7724 22.648 15.751 22.7998 15.7028 22.9428C15.6546 23.0859 15.5805 23.2174 15.4847 23.3299C15.3889 23.4423 15.2733 23.5336 15.1445 23.5983C15.0157 23.6631 14.8762 23.7001 14.734 23.7073C14.5917 23.7145 14.4496 23.6918 14.3156 23.6403C14.1816 23.5888 14.0584 23.5097 13.9531 23.4074C13.7089 23.1696 13.4847 22.9094 13.2832 22.6296C11.3061 19.8981 11.77 15.8148 14.1504 13.0231L14.2111 12.9537C9.717 11.5301 3.86363 13.2176 1.27948 18.7222C-0.710664 22.9676 0.0437698 26.4421 0.733166 28.2153C1.21011 29.4468 2.34393 30 3.37802 30H25.714C26.5765 30 27.4036 29.6342 28.0135 28.983C28.6233 28.3318 28.9659 27.4487 28.9659 26.5278V25.8403C28.9659 24.2755 28.7253 22.7963 27.9622 21.4653C27.3812 20.4491 26.5378 19.5926 25.404 18.8565C25.0492 20.1081 24.4374 21.2595 23.6133 22.2269C23.5174 22.3393 23.4016 22.4305 23.2727 22.4952C23.1437 22.5599 23.0041 22.5969 22.8618 22.604C22.7195 22.6111 22.5772 22.5882 22.4432 22.5366C22.3092 22.485 22.1859 22.4057 22.0806 22.3032C21.9753 22.2008 21.8899 22.0772 21.8293 21.9395C21.7687 21.8018 21.734 21.6527 21.7274 21.5008C21.7208 21.3488 21.7422 21.1969 21.7905 21.0538C21.8389 20.9107 21.9131 20.7791 22.0091 20.6667C23.4529 18.9769 23.8323 16.8866 23.3532 15.2569L25.7704 12.8704L25.8441 12.7917C26.1592 12.9043 26.493 12.9614 26.8457 12.963C27.6823 12.963 28.4846 12.6081 29.0761 11.9765C29.6677 11.3449 30 10.4882 30 9.59491C30 8.70164 29.6677 7.84497 29.0761 7.21333C28.4846 6.5817 27.6823 6.22685 26.8457 6.22685" fill="#0F4C3A"/>
</svg>
