<svg width="70" height="70" viewBox="0 0 70 70" fill="none" xmlns="http://www.w3.org/2000/svg">
<path d="M35 13.1251C31.519 13.1251 28.1806 14.5079 25.7192 16.9693C23.2578 19.4307 21.875 22.7691 21.875 26.2501C21.875 26.8302 21.6445 27.3866 21.2343 27.7969C20.8241 28.2071 20.2677 28.4376 19.6875 28.4376H18.5938C15.983 28.4376 13.4792 29.4747 11.6332 31.3207C9.78711 33.1668 8.75001 35.6706 8.75001 38.2813C8.75001 40.8921 9.78711 43.3959 11.6332 45.2419C13.4792 47.088 15.983 48.1251 18.5938 48.1251H21.9713C22.1113 49.6301 22.3811 51.0884 22.7806 52.5001H18.5938C14.9009 52.5079 11.3498 51.0787 8.6919 48.5149C6.03404 45.951 4.47794 42.4536 4.35289 38.7629C4.22784 35.0721 5.54363 31.4774 8.02186 28.7395C10.5001 26.0016 13.9463 24.3353 17.6313 24.0932C18.1375 19.976 20.0897 16.1725 23.1399 13.3611C26.19 10.5497 30.1397 8.91317 34.2844 8.74343C38.4291 8.57369 42.4993 9.88177 45.7691 12.4344C49.039 14.987 51.2957 18.6181 52.1369 22.6801C50.5854 22.2688 48.9967 22.0138 47.3944 21.9188C46.4958 19.3485 44.8201 17.1212 42.5994 15.5456C40.3787 13.97 37.7229 13.1241 35 13.1251ZM65.625 45.9376C65.625 48.523 65.1158 51.0831 64.1264 53.4717C63.137 55.8603 61.6868 58.0306 59.8587 59.8587C58.0305 61.6869 55.8602 63.1371 53.4716 64.1265C51.083 65.1159 48.5229 65.6251 45.9375 65.6251C43.3521 65.6251 40.792 65.1159 38.4034 64.1265C36.0148 63.1371 33.8445 61.6869 32.0163 59.8587C30.1882 58.0306 28.738 55.8603 27.7486 53.4717C26.7592 51.0831 26.25 48.523 26.25 45.9376C26.25 40.7161 28.3242 35.7085 32.0163 32.0164C35.7085 28.3243 40.7161 26.2501 45.9375 26.2501C51.159 26.2501 56.1665 28.3243 59.8587 32.0164C63.5508 35.7085 65.625 40.7161 65.625 45.9376ZM44.3888 35.6432L35.6388 44.3932C35.2286 44.804 34.9984 45.3608 34.9988 45.9413C34.9992 46.5218 35.2302 47.0783 35.6409 47.4885C36.0517 47.8987 36.6086 48.1289 37.1891 48.1285C37.7695 48.1281 38.3261 47.8971 38.7363 47.4863L43.75 42.4682V54.6876C43.75 55.2677 43.9805 55.8241 44.3907 56.2344C44.8009 56.6446 45.3573 56.8751 45.9375 56.8751C46.5177 56.8751 47.0741 56.6446 47.4843 56.2344C47.8945 55.8241 48.125 55.2677 48.125 54.6876V42.4682L53.1388 47.4863C53.5495 47.8971 54.1066 48.1278 54.6875 48.1278C55.2684 48.1278 55.8255 47.8971 56.2363 47.4863C56.647 47.0756 56.8778 46.5185 56.8778 45.9376C56.8778 45.3567 56.647 44.7996 56.2363 44.3888L47.4863 35.6388C47.0784 35.232 46.5266 35.0025 45.9506 35.0001H45.9244C45.3542 35.0036 44.8079 35.2297 44.4019 35.6301L44.3888 35.6432Z" fill="#0F4C3A"/>
</svg>
