<svg width="40" height="40" viewBox="0 0 40 40" fill="none" xmlns="http://www.w3.org/2000/svg">
<path d="M35 16.6667C34.9664 15.6469 34.6732 14.6526 34.1483 13.7777C33.6233 12.9028 32.884 12.1763 32 11.6667C31.7876 10.2149 31.059 8.88835 29.9478 7.93022C28.8366 6.97208 27.4173 6.44656 25.95 6.45C25.3834 6.45 24.8167 6.53333 24.2667 6.68333C23.1334 5.6 21.6334 5 20.0167 5C18.4 5 16.9 5.61667 15.7667 6.68333C15.2167 6.53333 14.65 6.45 14.0834 6.45H13.9667C10.9334 6.51667 8.43337 8.76667 8.03337 11.6667C7.14733 12.1738 6.40624 12.8998 5.88099 13.7752C5.35574 14.6507 5.06389 15.6462 5.03337 16.6667C4.1167 16.6667 3.3667 17.4167 3.3667 18.3333C3.3667 24.35 6.53337 29.7833 11.7 32.7667V35C11.7 35.9167 12.45 36.6667 13.3667 36.6667H26.7C27.6167 36.6667 28.3667 35.9167 28.3667 35V32.7667C33.5334 29.8 36.7 24.35 36.7 18.3333C36.7 17.4167 35.95 16.6667 35.0334 16.6667H35ZM10.1834 14.35L11.5334 13.9167L11.3 12.5167C11.3 11.05 12.5167 9.85 14.0167 9.81667C15.6 9.85 16.8834 11.1333 16.8834 12.7333H20.2167C20.2167 11.1833 19.6334 9.78333 18.6834 8.68333C19.0834 8.46667 19.5334 8.35 20 8.35C20.95 8.35 21.8334 8.81667 22.35 9.61667L23.2 10.9L24.55 10.1667C24.9667 9.93333 25.4334 9.81667 25.9167 9.81667C27.45 9.81667 28.7 11.0333 28.7 12.5167L28.4667 13.9167L29.8167 14.3667C30.85 14.7167 31.5334 15.6333 31.6334 16.6833H8.3667C8.45003 15.6333 9.15003 14.7 10.1834 14.3667V14.35ZM25.9334 30.2833C25.3667 30.5667 25 31.15 25 31.7833V33.35H15V31.7833C15 31.15 14.65 30.5667 14.0667 30.2833C12.0916 29.3147 10.3896 27.8685 9.11482 26.0757C7.84008 24.2829 7.03298 22.2003 6.7667 20.0167H33.2334C32.9656 22.1998 32.158 24.2818 30.8834 26.0744C29.6088 27.8669 27.9075 29.3135 25.9334 30.2833Z" fill="#0F4C3A"/>
</svg>
