<svg width="60" height="60" viewBox="0 0 60 60" fill="none" xmlns="http://www.w3.org/2000/svg">
<path fill-rule="evenodd" clip-rule="evenodd" d="M30 46.25C25.6902 46.25 21.557 44.5379 18.5095 41.4905C15.462 38.443 13.75 34.3098 13.75 30C13.75 25.6902 15.462 21.557 18.5095 18.5095C21.557 15.462 25.6902 13.75 30 13.75C34.3098 13.75 38.443 15.462 41.4905 18.5095C44.5379 21.557 46.25 25.6902 46.25 30C46.25 34.3098 44.5379 38.443 41.4905 41.4905C38.443 44.5379 34.3098 46.25 30 46.25ZM10 30C10 24.6957 12.1071 19.6086 15.8579 15.8579C19.6086 12.1071 24.6957 10 30 10C35.3043 10 40.3914 12.1071 44.1421 15.8579C47.8929 19.6086 50 24.6957 50 30C50 35.3043 47.8929 40.3914 44.1421 44.1421C40.3914 47.8929 35.3043 50 30 50C24.6957 50 19.6086 47.8929 15.8579 44.1421C12.1071 40.3914 10 35.3043 10 30ZM30 40C27.3478 40 24.8043 38.9464 22.9289 37.0711C21.0536 35.1957 20 32.6522 20 30H30V20C32.6522 20 35.1957 21.0536 37.0711 22.9289C38.9464 24.8043 40 27.3478 40 30C40 32.6522 38.9464 35.1957 37.0711 37.0711C35.1957 38.9464 32.6522 40 30 40Z" fill="#0F4C3A"/>
</svg>
