<svg width="21" height="23" viewBox="0 0 21 23" fill="none" xmlns="http://www.w3.org/2000/svg">
<path d="M10.8156 22.0386L10.8032 22.0408L10.7231 22.0788L10.7006 22.0832L10.6848 22.0788L10.6047 22.0408C10.5927 22.0371 10.5837 22.0389 10.5777 22.0462L10.5732 22.0571L10.554 22.5227L10.5596 22.5445L10.5709 22.5586L10.6882 22.6391L10.7051 22.6435L10.7186 22.6391L10.8359 22.5586L10.8494 22.5412L10.8539 22.5227L10.8347 22.0582C10.8317 22.0466 10.8253 22.04 10.8156 22.0386ZM11.1143 21.9156L11.0997 21.9178L10.8911 22.019L10.8798 22.0299L10.8764 22.0418L10.8967 22.5096L10.9024 22.5227L10.9114 22.5303L11.138 22.6315C11.1523 22.6351 11.1632 22.6322 11.1707 22.6228L11.1752 22.6076L11.1369 21.9396C11.1331 21.9265 11.1256 21.9185 11.1143 21.9156ZM10.3082 21.9178C10.3032 21.9149 10.2973 21.914 10.2916 21.9152C10.286 21.9164 10.281 21.9197 10.2778 21.9244L10.271 21.9396L10.2327 22.6076C10.2334 22.6206 10.2398 22.6293 10.2518 22.6337L10.2687 22.6315L10.4954 22.5303L10.5066 22.5216L10.5111 22.5096L10.5303 22.0418L10.5269 22.0288L10.5157 22.0179L10.3082 21.9178Z" fill="#D4F1E6"/>
<path d="M9.01961 18.4943C9.01961 18.7828 9.13839 19.0595 9.34983 19.2635C9.56127 19.4675 9.84804 19.5822 10.1471 19.5822C10.4461 19.5822 10.7328 19.4675 10.9443 19.2635C11.1557 19.0595 11.2745 18.7828 11.2745 18.4943V10.879H19.1667C19.4657 10.879 19.7525 10.7644 19.9639 10.5603C20.1753 10.3563 20.2941 10.0796 20.2941 9.79108C20.2941 9.50255 20.1753 9.22584 19.9639 9.02182C19.7525 8.8178 19.4657 8.70318 19.1667 8.70318H11.2745V1.0879C11.2745 0.799369 11.1557 0.522658 10.9443 0.318638C10.7328 0.114617 10.4461 0 10.1471 0C9.84804 0 9.56127 0.114617 9.34983 0.318638C9.13839 0.522658 9.01961 0.799369 9.01961 1.0879V8.70318H1.12745C0.828432 8.70318 0.541661 8.8178 0.330223 9.02182C0.118785 9.22584 0 9.50255 0 9.79108C0 10.0796 0.118785 10.3563 0.330223 10.5603C0.541661 10.7644 0.828432 10.879 1.12745 10.879H9.01961V18.4943Z" fill="#D4F1E6"/>
</svg>
