<svg width="41" height="44" viewBox="0 0 41 44" fill="none" xmlns="http://www.w3.org/2000/svg">
<path d="M39.7119 13.418C39.4223 13.1263 39.0776 12.8949 38.6979 12.7373C38.3183 12.5798 37.9111 12.4991 37.5 12.5H31.25V10.9375C31.25 8.03669 30.0977 5.2547 28.0465 3.20352C25.9953 1.15234 23.2133 0 20.3125 0C17.4117 0 14.6297 1.15234 12.5785 3.20352C10.5273 5.2547 9.375 8.03669 9.375 10.9375V12.5H3.125C2.2962 12.5 1.50134 12.8292 0.915291 13.4153C0.32924 14.0013 0 14.7962 0 15.625V36.7188C0 40.5273 3.22266 43.75 7.03125 43.75H33.5938C35.436 43.7506 37.2054 43.0303 38.5234 41.7432C39.1867 41.1104 39.7149 40.3497 40.0761 39.5072C40.4373 38.6646 40.624 37.7575 40.625 36.8408V15.625C40.6263 15.215 40.5462 14.8089 40.3895 14.43C40.2328 14.0512 40.0025 13.7072 39.7119 13.418ZM27.7822 23.6328L19.0322 34.5703C18.8885 34.7498 18.707 34.8955 18.5005 34.9967C18.2941 35.098 18.0678 35.1525 17.8379 35.1562H17.8125C17.5868 35.1563 17.3638 35.1074 17.1588 35.013C16.9538 34.9186 16.7717 34.7809 16.625 34.6094L12.875 30.2266C12.7416 30.0706 12.6403 29.8899 12.5767 29.6948C12.5132 29.4997 12.4887 29.294 12.5047 29.0894C12.5206 28.8848 12.5767 28.6854 12.6697 28.5025C12.7628 28.3196 12.8909 28.1568 13.0469 28.0234C13.2028 27.8901 13.3835 27.7887 13.5786 27.7252C13.7737 27.6616 13.9795 27.6371 14.184 27.6531C14.3886 27.6691 14.588 27.7252 14.7709 27.8182C14.9538 27.9112 15.1166 28.0394 15.25 28.1953L17.7734 31.1436L25.3428 21.6797C25.6018 21.3559 25.9788 21.1483 26.3908 21.1025C26.8029 21.0568 27.2163 21.1765 27.54 21.4355C27.8638 21.6945 28.0714 22.0716 28.1172 22.4836C28.163 22.8957 28.0432 23.3091 27.7842 23.6328H27.7822ZM28.125 12.5H12.5V10.9375C12.5 8.8655 13.3231 6.87836 14.7882 5.41323C16.2534 3.9481 18.2405 3.125 20.3125 3.125C22.3845 3.125 24.3716 3.9481 25.8368 5.41323C27.3019 6.87836 28.125 8.8655 28.125 10.9375V12.5Z" fill="#0F4C3A"/>
</svg>
