<svg width="70" height="70" viewBox="0 0 70 70" fill="none" xmlns="http://www.w3.org/2000/svg">
<path d="M42.2917 43.75C42.2917 32.4888 24.7917 32.4888 24.7917 43.75" stroke="#0F4C3A" stroke-opacity="0.7" stroke-width="3" stroke-linecap="round" stroke-linejoin="round"/>
<path d="M33.5418 34.9999C35.0889 34.9999 36.5727 34.3853 37.6666 33.2914C38.7606 32.1974 39.3752 30.7137 39.3752 29.1666C39.3752 27.6195 38.7606 26.1358 37.6666 25.0418C36.5727 23.9478 35.0889 23.3333 33.5418 23.3333C31.9947 23.3333 30.511 23.9478 29.417 25.0418C28.3231 26.1358 27.7085 27.6195 27.7085 29.1666C27.7085 30.7137 28.3231 32.1974 29.417 33.2914C30.511 34.3853 31.9947 34.9999 33.5418 34.9999Z" stroke="#0F4C3A" stroke-opacity="0.7" stroke-width="3" stroke-linecap="round" stroke-linejoin="round"/>
<path d="M49.2713 49.35L58.2547 58.3333M55.4167 33.5416C55.4167 39.3432 53.1121 44.9072 49.0097 49.0096C44.9074 53.1119 39.3434 55.4166 33.5417 55.4166C27.7401 55.4166 22.1761 53.1119 18.0738 49.0096C13.9714 44.9072 11.6667 39.3432 11.6667 33.5416C11.6667 27.74 13.9714 22.176 18.0738 18.0737C22.1761 13.9713 27.7401 11.6666 33.5417 11.6666C39.3434 11.6666 44.9074 13.9713 49.0097 18.0737C53.1121 22.176 55.4167 27.74 55.4167 33.5416Z" stroke="#0F4C3A" stroke-opacity="0.7" stroke-width="3" stroke-linecap="round" stroke-linejoin="round"/>
</svg>
