<svg width="24" height="24" viewBox="0 0 24 24" fill="none" xmlns="http://www.w3.org/2000/svg">
<path d="M12 2.66671V14.6667M5.33334 14.6667H2.66667C2.31305 14.6667 1.97391 14.8072 1.72386 15.0572C1.47381 15.3073 1.33334 15.6464 1.33334 16V21.3334C1.33334 21.687 1.47381 22.0261 1.72386 22.2762C1.97391 22.5262 2.31305 22.6667 2.66667 22.6667H21.3333C21.687 22.6667 22.0261 22.5262 22.2761 22.2762C22.5262 22.0261 22.6667 21.687 22.6667 21.3334V16C22.6667 15.6464 22.5262 15.3073 22.2761 15.0572C22.0261 14.8072 21.687 14.6667 21.3333 14.6667H18.6667M6.66667 8.00004L12 1.33337L17.3333 8.00004M18.6667 18.6667H18.68" stroke="#D4F1E6" stroke-width="2.66667" stroke-linecap="round" stroke-linejoin="round"/>
</svg>
