<svg width="50" height="50" viewBox="0 0 50 50" fill="none" xmlns="http://www.w3.org/2000/svg">
<path d="M34.375 14.0625H40.7715C41.1594 14.0618 41.5336 14.2053 41.8215 14.4652C42.1094 14.7251 42.2903 15.0828 42.3291 15.4687L43.2813 25H40.1367L39.3555 17.1875H34.375V21.875C34.375 22.2894 34.2104 22.6868 33.9174 22.9799C33.6243 23.2729 33.2269 23.4375 32.8125 23.4375C32.3981 23.4375 32.0007 23.2729 31.7077 22.9799C31.4146 22.6868 31.25 22.2894 31.25 21.875V17.1875H18.75V21.875C18.75 22.2894 18.5854 22.6868 18.2924 22.9799C17.9993 23.2729 17.6019 23.4375 17.1875 23.4375C16.7731 23.4375 16.3757 23.2729 16.0827 22.9799C15.7896 22.6868 15.625 22.2894 15.625 21.875V17.1875H10.6446L8.13967 42.1875H25V45.3125H6.41115C6.19295 45.3122 5.97722 45.2663 5.77786 45.1775C5.5785 45.0888 5.39993 44.9594 5.25366 44.7974C5.10738 44.6355 4.99664 44.4448 4.92857 44.2374C4.86049 44.0301 4.8366 43.8109 4.85842 43.5938L7.67092 15.4687C7.7097 15.0828 7.89063 14.7251 8.17852 14.4652C8.46641 14.2053 8.84068 14.0618 9.22854 14.0625H15.625V12.9736C15.625 7.55371 19.7998 3.125 25 3.125C30.2002 3.125 34.375 7.55371 34.375 12.9736V14.0625ZM31.25 14.0625V12.9736C31.25 9.23828 28.4326 6.25 25 6.25C21.5674 6.25 18.75 9.23828 18.75 12.9736V14.0625H31.25ZM41.084 37.6855L37.5 34.1064V45.3125C37.5 45.7269 37.3354 46.1243 37.0424 46.4174C36.7493 46.7104 36.3519 46.875 35.9375 46.875C35.5231 46.875 35.1257 46.7104 34.8327 46.4174C34.5396 46.1243 34.375 45.7269 34.375 45.3125V34.1064L30.7959 37.6855C30.6518 37.8343 30.4795 37.9529 30.2892 38.0344C30.0988 38.116 29.8941 38.1589 29.687 38.1606C29.4799 38.1623 29.2745 38.1229 29.0828 38.0445C28.8911 37.9662 28.7169 37.8505 28.5702 37.7042C28.4236 37.5579 28.3076 37.384 28.2288 37.1924C28.15 37.0009 28.1101 36.7956 28.1114 36.5885C28.1127 36.3814 28.1551 36.1766 28.2363 35.9861C28.3174 35.7955 28.4356 35.623 28.584 35.4785L34.834 29.2285C34.9791 29.0831 35.1515 28.9677 35.3413 28.889C35.5311 28.8103 35.7345 28.7698 35.94 28.7698C36.1454 28.7698 36.3488 28.8103 36.5386 28.889C36.7284 28.9677 36.9008 29.0831 37.0459 29.2285L43.2959 35.4785C43.4443 35.623 43.5625 35.7955 43.6437 35.9861C43.7248 36.1766 43.7672 36.3814 43.7685 36.5885C43.7698 36.7956 43.7299 37.0009 43.6511 37.1924C43.5723 37.384 43.4563 37.5579 43.3097 37.7042C43.1631 37.8505 42.9888 37.9662 42.7971 38.0445C42.6054 38.1229 42.4 38.1623 42.1929 38.1606C41.9858 38.1589 41.7811 38.116 41.5908 38.0344C41.4004 37.9529 41.2281 37.8343 41.084 37.6855Z" fill="#0F4C3A"/>
</svg>
