<svg width="32" height="27" viewBox="0 0 32 27" fill="none" xmlns="http://www.w3.org/2000/svg">
<path d="M26.3333 26.4L13.8 13.8C12.7556 14.0444 11.7836 14.4111 10.884 14.9C9.98444 15.3889 9.17867 16 8.46667 16.7333L5.66667 13.8667C6.37778 13.1556 7.14444 12.5333 7.96667 12C8.78889 11.4667 9.66667 11 10.6 10.6L7.6 7.6C6.68889 8.06667 5.83867 8.58356 5.04933 9.15067C4.26 9.71778 3.51022 10.3564 2.8 11.0667L0 8.2C0.711111 7.48889 1.45022 6.85022 2.21733 6.284C2.98444 5.71778 3.80089 5.17867 4.66667 4.66667L1.86667 1.86667L3.73333 0L28.2667 24.5333L26.3333 26.4ZM13.6333 23.284C12.9889 22.628 12.6667 21.8444 12.6667 20.9333C12.6667 20 12.9889 19.2111 13.6333 18.5667C14.2778 17.9222 15.0667 17.6 16 17.6C16.9333 17.6 17.7222 17.9222 18.3667 18.5667C19.0111 19.2111 19.3333 20 19.3333 20.9333C19.3333 21.8444 19.0111 22.628 18.3667 23.284C17.7222 23.94 16.9333 24.2676 16 24.2667C15.0667 24.2658 14.2778 23.9382 13.6333 23.284ZM23.8667 16.3333L22.9 15.3667L21.9333 14.4L17.1333 9.6C18.9333 9.77778 20.6169 10.2333 22.184 10.9667C23.7511 11.7 25.1342 12.6667 26.3333 13.8667L23.8667 16.3333ZM29.2 11.0667C27.4889 9.35556 25.5058 8.01689 23.2507 7.05067C20.9956 6.08444 18.5787 5.60089 16 5.6C15.5333 5.6 15.0836 5.61689 14.6507 5.65067C14.2178 5.68444 13.7787 5.73422 13.3333 5.8L9.93333 2.4C10.9111 2.13333 11.9058 1.93333 12.9173 1.8C13.9289 1.66667 14.9564 1.6 16 1.6C19.1556 1.6 22.1 2.18889 24.8333 3.36667C27.5667 4.54444 29.9556 6.15556 32 8.2L29.2 11.0667Z" fill="#0F4C3A"/>
</svg>
